<?xml version="1.0" encoding="UTF-8"?>
<svg version="1.1" xmlns="http://www.w3.org/2000/svg" width="383" height="289">
<path d="M0 0 C0 1.98 0 3.96 0 6 C3.63 6 7.26 6 11 6 C11 4.02 11 2.04 11 0 C24.81929588 0.59953561 36.82996922 5.85596505 46.37109375 15.97265625 C54.19523611 25.7106176 56.87969061 36.78153344 57.3125 49.0625 C57.91361249 59.68215396 63.29365255 67.61050671 69.77734375 75.74609375 C71 78 71 78 70.9453125 80.609375 C69.288066 84.80042814 65.8331567 85.8704685 62 88 C62.495 93.94 62.495 93.94 63 100 C61.02 100.99 61.02 100.99 59 102 C59.7425 102.6496875 59.7425 102.6496875 60.5 103.3125 C62 105 62 105 62 108 C61.34 108 60.68 108 60 108 C59.92652344 109.22976562 59.92652344 109.22976562 59.8515625 110.484375 C59.77679688 111.56203125 59.70203125 112.6396875 59.625 113.75 C59.55539062 114.81734375 59.48578125 115.8846875 59.4140625 116.984375 C59.02185226 119.84084954 58.62370003 121.63624622 57 124 C53.44193142 125.18602286 50.68648882 125.02521795 46.9375 124.9375 C36.0150159 124.81060576 36.0150159 124.81060576 26.125 128.875 C23.98158422 130.89400212 23.98158422 130.89400212 22.52050781 133.12207031 C18.4903879 136.12475167 14.42238331 135.38221605 9.546875 135.171875 C8.53151672 135.14401917 7.51615845 135.11616333 6.47003174 135.08746338 C3.22910282 134.99414228 -0.01005297 134.87243428 -3.25 134.75 C-5.4478593 134.68172139 -7.6457769 134.61529268 -9.84375 134.55078125 C-15.23002709 134.3886421 -20.6151238 134.20319206 -26 134 C-26.12914795 132.83734619 -26.2582959 131.67469238 -26.39135742 130.47680664 C-26.56671962 128.93373662 -26.74226649 127.39068758 -26.91796875 125.84765625 C-27.04455872 124.70133728 -27.04455872 124.70133728 -27.17370605 123.53186035 C-28.51832082 111.82080107 -32.19786287 103.73779404 -39.5 94.5625 C-42.80246129 90.38372771 -46.07108328 86.00312774 -48 81 C-47.67 80.01 -47.34 79.02 -47 78 C-41.72 78 -36.44 78 -31 78 C-31 66.78 -31 55.56 -31 44 C-37.6 44 -44.2 44 -51 44 C-48.06920415 32.27681661 -48.06920415 32.27681661 -45 29 C-42.82348633 28.54589844 -42.82348633 28.54589844 -40.33203125 28.609375 C-39.52741455 28.61936523 -38.72279785 28.62935547 -37.89379883 28.63964844 C-36.36855591 28.69427246 -36.36855591 28.69427246 -34.8125 28.75 C-31.574375 28.8325 -28.33625 28.915 -25 29 C-25 22.07 -25 15.14 -25 8 C-22.793125 6.865625 -20.58625 5.73125 -18.3125 4.5625 C-17.62712158 4.20615479 -16.94174316 3.84980957 -16.2355957 3.48266602 C-10.61010119 0.63201331 -6.24923501 -0.14533105 0 0 Z M-13 25 C-13 31.27 -13 37.54 -13 44 C-6.73 44 -0.46 44 6 44 C6 37.73 6 31.46 6 25 C-0.27 25 -6.54 25 -13 25 Z M29 25 C29 27.31 29 29.62 29 32 C31.64 32 34.28 32 37 32 C37 29.69 37 27.38 37 25 C34.36 25 31.72 25 29 25 Z M12 54 C12 56.31 12 58.62 12 61 C14.31 61 16.62 61 19 61 C19 58.69 19 56.38 19 54 C16.69 54 14.38 54 12 54 Z M-14 65 C-14 71.93 -14 78.86 -14 86 C-7.07 86 -0.14 86 7 86 C7 79.07 7 72.14 7 65 C0.07 65 -6.86 65 -14 65 Z M28 77 C27.95745644 78.99954746 27.95919217 81.00041636 28 83 C29.11836224 84.34404775 29.11836224 84.34404775 32 84.125 C34.88163776 84.34404775 34.88163776 84.34404775 36 83 C36.04080783 81.00041636 36.04254356 78.99954746 36 77 C33.36 77 30.72 77 28 77 Z M-20 99 C-20 101.64 -20 104.28 -20 107 C-17.69 107 -15.38 107 -13 107 C-13 104.36 -13 101.72 -13 99 C-15.31 99 -17.62 99 -20 99 Z " fill="#0B0B0B" transform="translate(200,105)"/>
<path d="M0 0 C5.75 0.75 5.75 0.75 8 3 C7.67176873 7.34906427 6.80260764 11.0342632 5 15 C5.53625 14.67 6.0725 14.34 6.625 14 C9.67193922 12.71707822 11.72032701 12.59004088 15 13 C17.4375 14.625 17.4375 14.625 19 17 C19.08656724 21.06866009 18.3631652 22.59860689 15.625 25.625 C14.75875 26.40875 13.8925 27.1925 13 28 C11.97186389 29.31175986 10.95915568 30.6369893 10 32 C10.495 32.61875 10.99 33.2375 11.5 33.875 C13 36 13 36 13 38 C13.99 38 14.98 38 16 38 C16.37125 37.195625 16.37125 37.195625 16.75 36.375 C18.32341984 33.3855023 19.93100487 30.67752311 22 28 C23.32 28 24.64 28 26 28 C27.92930407 25.63053161 27.92930407 25.63053161 29.5625 22.625 C32.71558989 17.18960674 32.71558989 17.18960674 36 15 C36.53496094 15.6496875 37.06992188 16.299375 37.62109375 16.96875 C41.24841657 20.06597145 44.61834212 19.48571908 49.22265625 19.53125 C52 20 52 20 53.93359375 21.65625 C55.41451586 24.91102387 54.98693923 26.58399914 54 30 C52.40625 33.10546875 52.40625 33.10546875 50.5 36.1875 C47.88923065 40.4249261 47.88923065 40.4249261 46 45 C49.38264354 43.90561532 51.24207648 42.78367634 53.9375 40.375 C57.53972319 37.58143916 58.61775466 37.91056642 63 38 C64.69952436 37.00593858 66.39816038 36.00969826 68.07421875 34.9765625 C71.5648493 33.20646587 75.10940371 32.54828283 79 33 C82.70368048 35.85492037 84.62893043 38.1858821 85.5625 42.75 C84.89338018 46.61602564 84.16289901 47.03270237 81.125 49.3125 C76.83290334 52.24312514 74.31522907 53.42521833 69 53 C66.625 51.5 66.625 51.5 65 50 C64.67 51.32 64.34 52.64 64 54 C67.20414749 56.50324023 68.74223911 57.00831487 72.875 56.875 C76.90737731 56.19271563 80.32298075 54.76190506 84 53 C84.66 53.66 85.32 54.32 86 55 C89.16890525 54.79400727 89.16890525 54.79400727 92.75 54.125 C97.22855271 53.37222199 101.45197933 52.76851392 106 53 C107 54 107 54 107.3125 57.25 C106.93924877 61.72901478 106.0091488 62.75328682 103 66 C101.92510324 67.40728379 100.86321571 68.82457122 99.8125 70.25 C97.10948905 73.89051095 97.10948905 73.89051095 96 75 C96.74765625 75 97.4953125 75 98.265625 75 C103.84375 75 109.421875 75 115 75 C114.67 73.68 114.34 72.36 114 71 C115.299375 71.04125 116.59875 71.0825 117.9375 71.125 C122.25995399 71.14555049 126.08411645 70.44640657 130.25 69.33984375 C131.11625 69.17162109 131.11625 69.17162109 132 69 C133 70 133 70 133.09765625 71.84765625 C133.06510417 73.8984375 133.03255208 75.94921875 133 78 C130.03 79.485 130.03 79.485 127 81 C127.33 82.65 127.66 84.3 128 86 C126.1875 86.6875 126.1875 86.6875 124 87 C122.25 85.6875 122.25 85.6875 121 84 C121 83.34 121 82.68 121 82 C119.79601562 82.433125 118.59203125 82.86625 117.3515625 83.3125 C115.77610058 83.87516497 114.20057651 84.43765597 112.625 85 C111.8309375 85.28617187 111.036875 85.57234375 110.21875 85.8671875 C109.45820313 86.13789062 108.69765625 86.40859375 107.9140625 86.6875 C107.2123291 86.93886719 106.5105957 87.19023438 105.78759766 87.44921875 C104 88 104 88 102 88 C102.33 89.32 102.66 90.64 103 92 C107.95 92.33 112.9 92.66 118 93 C118 94.65 118 96.3 118 98 C115.24973583 98.05404449 112.50053797 98.09369306 109.75 98.125 C108.97269531 98.14175781 108.19539062 98.15851563 107.39453125 98.17578125 C99.84616375 98.24029721 99.84616375 98.24029721 97 96 C94.76431289 92.82223091 94.78428468 90.06004355 94.875 86.25 C94.89304687 85.26515625 94.91109375 84.2803125 94.9296875 83.265625 C94.95289063 82.51796875 94.97609375 81.7703125 95 81 C94.443125 81.00902344 93.88625 81.01804687 93.3125 81.02734375 C87.41133683 80.79807559 83.8775089 79.27165362 79.59765625 75.1875 C76.88915911 71.47904425 76.36204493 67.4984083 76 63 C75.27554688 63.04640625 74.55109375 63.0928125 73.8046875 63.140625 C69.17428496 63.31349336 65.83150989 63.37795904 61.5625 61.4375 C57.75162305 57.81251948 55.67350666 54.02051999 54 49 C53.13375 49.495 52.2675 49.99 51.375 50.5 C47.77899092 52.09822626 45.87117359 52.57655777 42 52 C38.65276237 50.06604048 37.27221601 48.94289315 36.19140625 45.19921875 C35.96058535 41.34121229 36.78504967 39.72645258 38.75 36.4375 C39.28109375 35.52871094 39.8121875 34.61992188 40.359375 33.68359375 C40.90078125 32.79800781 41.4421875 31.91242187 42 31 C42.56203125 30.06285156 43.1240625 29.12570313 43.703125 28.16015625 C44.13109375 27.44730469 44.5590625 26.73445313 45 26 C41.08143171 26.18225899 39.38149399 26.63758071 36.5 29.375 C32.67095608 34.47210392 29.84310906 40.31378189 27 46 C23.31245243 45.50168276 21.39509338 44.89932357 19 42 C18.649375 42.495 18.29875 42.99 17.9375 43.5 C16 45 16 45 12.75 45.625 C7.55454689 44.75909115 5.14902474 42.08791602 2 38 C1.01 36.02 1.01 36.02 0 34 C-0.99 37.3 -1.98 40.6 -3 44 C-4.65 44.33 -6.3 44.66 -8 45 C-9.32 43.35 -10.64 41.7 -12 40 C-18.03105631 42.53885281 -18.03105631 42.53885281 -22.375 47.25 C-25.31415204 50.32911166 -25.88582802 50.46800526 -29.9375 50.625 C-34.7436233 50.35200645 -37.35535759 49.06917256 -41 46 C-41.48210937 46.5775 -41.96421875 47.155 -42.4609375 47.75 C-43.09257812 48.4925 -43.72421875 49.235 -44.375 50 C-45.31472656 51.11375 -45.31472656 51.11375 -46.2734375 52.25 C-46.84320313 52.8275 -47.41296875 53.405 -48 54 C-48.66 54 -49.32 54 -50 54 C-50.2475 55.093125 -50.495 56.18625 -50.75 57.3125 C-52.08130222 61.23984155 -52.53906075 62.01548907 -56 64 C-61.01450779 64.82952364 -65.54724199 64.77085119 -70.0625 62.375 C-74.50812174 56.92552819 -75.04852739 49.85206717 -75 43 C-74.53169795 39.92834141 -73.80445405 37.54490244 -72 35 C-67.37973907 31.95062778 -63.35225028 31.50455683 -58.01171875 32.375 C-54.66683748 33.41418641 -53.64730141 34.95882817 -52 38 C-50.85814106 40.96386865 -49.87768615 43.94804589 -49 47 C-47.38935371 43.34920174 -46.55105909 39.9492568 -46 36 C-44.515 35.505 -44.515 35.505 -43 35 C-42.33798081 33.12549153 -42.33798081 33.12549153 -42.0625 30.875 C-41.17061625 26.18324178 -39.64705892 22.97058839 -37 19 C-32.87746229 16.93873115 -28.06172355 17.55179923 -23.6640625 18.5078125 C-21.24665367 19.40670459 -19.78644064 20.127192 -18 22 C-16.61750736 26.78500043 -16.42343619 31.27030856 -18 36 C-14.98134891 34.18880935 -14.09805821 33.30643189 -13 29.875 C-12.67 28.92625 -12.34 27.9775 -12 27 C-11.03743286 26.82682251 -11.03743286 26.82682251 -10.05541992 26.65014648 C-9.37713135 26.43559814 -8.69884277 26.2210498 -8 26 C-6.80788422 23.65495924 -6.80788422 23.65495924 -6.11328125 20.72265625 C-5.81486328 19.65208984 -5.51644531 18.58152344 -5.20898438 17.47851562 C-4.76522461 15.78758789 -4.76522461 15.78758789 -4.3125 14.0625 C-3.70557373 11.84473797 -3.09755545 9.6272744 -2.48828125 7.41015625 C-2.22571533 6.42152588 -1.96314941 5.43289551 -1.69262695 4.41430664 C-1 2 -1 2 0 0 Z M4.9375 20.625 C2.37804915 22.44138447 1.80474579 24.00049296 1 27 C1.33 27.99 1.66 28.98 2 30 C6.95562913 26.26978687 6.95562913 26.26978687 10 21 C7.16364216 19.73356802 7.16364216 19.73356802 4.9375 20.625 Z M-30 23 C-32.36682295 28.95932208 -33.94954199 34.5505135 -33 41 C-32.04691313 43.20481291 -32.04691313 43.20481291 -31 45 C-30.01 44.67 -29.02 44.34 -28 44 C-27.87625 42.948125 -27.7525 41.89625 -27.625 40.8125 C-27 37 -27 37 -25.875 34.5625 C-24.58981267 30.79873709 -25.339156 27.89897961 -26 24 C-27.32 23.67 -28.64 23.34 -30 23 Z M0 30 C1 32 1 32 1 32 Z M-65 38 C-66.70984986 44.66841443 -65.22180321 51.93542925 -62 58 C-61.01 58.33 -60.02 58.66 -59 59 C-57.25011035 53.75033105 -56.98773225 47.19570574 -58.671875 41.87890625 C-59.53531306 40.10164972 -59.53531306 40.10164972 -61 38 C-62.32 38 -63.64 38 -65 38 Z M73 41.875 C72.278125 42.22304688 71.55625 42.57109375 70.8125 42.9296875 C68.83598869 43.87571476 68.83598869 43.87571476 68 46 C72.67461851 46.32613618 75.16674383 45.70582788 79 43 C78.67 42.01 78.34 41.02 78 40 C76.17568507 40 74.61009776 41.08720217 73 41.875 Z M94 60 C92.53775201 60.42423244 91.08026588 60.86490245 89.625 61.3125 C88.81289063 61.55613281 88.00078125 61.79976562 87.1640625 62.05078125 C84.66815371 62.91368185 84.66815371 62.91368185 83 66 C83 67.32 83 68.64 83 70 C85.33954463 70.33483064 85.33954463 70.33483064 88 70 C90.10434862 68.28429733 90.10434862 68.28429733 91.8125 66 C92.41707031 65.2575 93.02164063 64.515 93.64453125 63.75 C94.09183594 63.1725 94.53914062 62.595 95 62 C94.67 61.34 94.34 60.68 94 60 Z " fill="#2E2E2E" transform="translate(185,7)"/>
<path d="M0 0 C2.44508024 2.26617193 3.53542207 4.07084414 5 7 C5.039992 8.99960012 5.04346799 11.00047242 5 13 C5.67546875 12.95359375 6.3509375 12.9071875 7.046875 12.859375 C14.24864992 12.5679737 14.24864992 12.5679737 17.5 14.4375 C21.41841714 21.13146261 21.41821701 27.74457196 19.97265625 35.25 C18.20785396 40.23964182 14.59082365 42.70458818 10 45 C9.27306096 46.97888961 8.60183749 48.97954558 8 51 C4.535 51.495 4.535 51.495 1 52 C-0.52431205 49.06025533 -1.7964472 46.08410406 -3 43 C-3.556875 41.6078125 -3.556875 41.6078125 -4.125 40.1875 C-4.41375 39.465625 -4.7025 38.74375 -5 38 C-6.65 38 -8.3 38 -10 38 C-11 34 -11 34 -11.3828125 32.078125 C-12.06299003 29.787907 -12.99041711 28.38936638 -14.4375 26.5 C-16.23648982 24.08228247 -17.77996255 21.77281238 -19 19 C-20.96822886 20.96822886 -20.66248381 24.34808709 -21 27 C-20.030625 27.309375 -19.06125 27.61875 -18.0625 27.9375 C-15 29 -15 29 -14 30 C-13.875 32.5 -13.875 32.5 -14 35 C-15.87643761 36.87643761 -18.49805701 36.17984987 -20.9921875 36.23046875 C-23 36 -23 36 -26 34 C-28.07433701 27.77698898 -28.50737189 19.28375168 -25.73046875 13.234375 C-24.26320291 11.24946063 -22.91697528 9.5544385 -21 8 C-20.34 8 -19.68 8 -19 8 C-18.7215625 7.13375 -18.7215625 7.13375 -18.4375 6.25 C-14.37819429 -0.1036959 -7.00432972 -1.45211714 0 0 Z M-16 13 C-16 13.66 -16 14.32 -16 15 C-14.02 15 -12.04 15 -10 15 C-8.68 17.64 -7.36 20.28 -6 23 C-5.34 23 -4.68 23 -4 23 C-1.57781377 19.58044297 -2.00104372 16.84494445 -2.515625 12.90234375 C-2.96679341 10.68988031 -2.96679341 10.68988031 -5 8 C-10.11346592 6.86367424 -12.54347114 9.62385553 -16 13 Z M4 21 C3.319375 22.0725 2.63875 23.145 1.9375 24.25 C1.55464844 24.85328125 1.17179687 25.4565625 0.77734375 26.078125 C-0.21845446 28.54009847 0.04208122 29.54772793 1 32 C2.16595656 33.94408607 2.16595656 33.94408607 3.5625 35.75 C4.01753906 36.36359375 4.47257812 36.9771875 4.94140625 37.609375 C5.29074219 38.06828125 5.64007813 38.5271875 6 39 C9.65316671 37.75023244 10.78065836 37.32901247 13 34 C13.23658571 30.2737751 13.27306158 27.18326684 12.4375 23.5625 C10.09150686 21.01250745 7.31661719 21.24567535 4 21 Z " fill="#2D2D2D" transform="translate(89,52)"/>
<path d="M0 0 C9.24 0 18.48 0 28 0 C28 9.24 28 18.48 28 28 C18.76 28 9.52 28 0 28 C0 18.76 0 9.52 0 0 Z " fill="#111111" transform="translate(138,152)"/>
<path d="M0 0 C0 2.64 0 5.28 0 8 C-1.98 8.99 -3.96 9.98 -6 11 C-5.505 13.475 -5.505 13.475 -5 16 C-6.8125 16.6875 -6.8125 16.6875 -9 17 C-10.75 15.6875 -10.75 15.6875 -12 14 C-12 13.34 -12 12.68 -12 12 C-13.20398438 12.433125 -14.40796875 12.86625 -15.6484375 13.3125 C-17.22389942 13.87516497 -18.79942349 14.43765597 -20.375 15 C-21.1690625 15.28617188 -21.963125 15.57234375 -22.78125 15.8671875 C-23.54179687 16.13789062 -24.30234375 16.40859375 -25.0859375 16.6875 C-25.7876709 16.93886719 -26.4894043 17.19023438 -27.21240234 17.44921875 C-29 18 -29 18 -31 18 C-30.67 19.32 -30.34 20.64 -30 22 C-25.05 22.33 -20.1 22.66 -15 23 C-15 24.65 -15 26.3 -15 28 C-17.75026417 28.05404449 -20.49946203 28.09369306 -23.25 28.125 C-24.02730469 28.14175781 -24.80460937 28.15851563 -25.60546875 28.17578125 C-32.96292928 28.23866553 -32.96292928 28.23866553 -36 26 C-37.32229189 23.35541621 -37.09677194 21.32238699 -37.0625 18.375 C-37.05347656 17.37210938 -37.04445313 16.36921875 -37.03515625 15.3359375 C-37.01775391 14.17964844 -37.01775391 14.17964844 -37 13 C-36.34 13 -35.68 13 -35 13 C-35 12.01 -35 11.02 -35 10 C-36.32 10 -37.64 10 -39 10 C-39.33 9.01 -39.66 8.02 -40 7 C-37.94921875 6.77213542 -35.8984375 6.54427083 -33.84765625 6.31640625 C-31.98859771 6.18113386 -31.98859771 6.18113386 -31 5 C-29.33394172 4.9549714 -27.66621616 4.96125079 -26 5 C-24.68 5 -23.36 5 -22 5 C-20.68 5 -19.36 5 -18 5 C-18.33 3.68 -18.66 2.36 -19 1 C-18.14728516 1.03480469 -18.14728516 1.03480469 -17.27734375 1.0703125 C-13.35046184 1.16209271 -9.88964859 1.13864056 -6.125 -0.0625 C-3 -1 -3 -1 0 0 Z " fill="#292929" transform="translate(318,77)"/>
<path d="M0 0 C5.1665625 -0.0309375 5.1665625 -0.0309375 10.4375 -0.0625 C11.52474365 -0.071604 12.6119873 -0.08070801 13.73217773 -0.09008789 C15.00750366 -0.09383423 15.00750366 -0.09383423 16.30859375 -0.09765625 C17.62041626 -0.10551147 17.62041626 -0.10551147 18.95874023 -0.11352539 C21 0 21 0 22 1 C22.08685603 2.56172745 22.10702219 4.12729344 22.09765625 5.69140625 C22.09443359 6.63564453 22.09121094 7.57988281 22.08789062 8.55273438 C22.07951172 9.54595703 22.07113281 10.53917969 22.0625 11.5625 C22.05798828 12.55958984 22.05347656 13.55667969 22.04882812 14.58398438 C22.03700007 17.05604849 22.02051849 19.52799518 22 22 C19.07330309 22.97556564 17.55938679 23.0606341 14.55078125 22.87890625 C13.4047644 22.81425171 13.4047644 22.81425171 12.2355957 22.74829102 C10.78866333 22.65632446 10.78866333 22.65632446 9.3125 22.5625 C4.7028125 22.2840625 4.7028125 22.2840625 0 22 C0 14.74 0 7.48 0 0 Z " fill="#141414" transform="translate(151,110)"/>
<path d="M0 0 C2.04553781 0.05865718 2.04553781 0.05865718 4.20703125 -0.39453125 C6.87091858 -0.8218715 9.30163778 -1.11031041 12 -1 C14.87646679 1.17202594 16.40279455 2.80558911 18 6 C18.66 5.67 19.32 5.34 20 5 C22.3329866 4.95977609 24.66706666 4.95679753 27 5 C27 4.34 27 3.68 27 3 C24.36 3.33 21.72 3.66 19 4 C19 2.68 19 1.36 19 0 C25.625 -1.125 25.625 -1.125 29 0 C30.35091528 2.70183055 30.33858058 5.11808206 30.5625 8.125 C30.64628906 9.22070312 30.73007813 10.31640625 30.81640625 11.4453125 C30.87699219 12.28835938 30.93757813 13.13140625 31 14 C29.22992286 14.08114106 27.45877902 14.13925505 25.6875 14.1875 C24.70136719 14.22230469 23.71523437 14.25710938 22.69921875 14.29296875 C20 14 20 14 18.14453125 12.48828125 C17.76683594 11.99714844 17.38914063 11.50601562 17 11 C16.649375 11.495 16.29875 11.99 15.9375 12.5 C13.05625711 14.73063966 10.52990974 14.19980621 7 14 C6.34 15.98 5.68 17.96 5 20 C4.01 19.67 3.02 19.34 2 19 C2 13.72 2 8.44 2 3 C1.34 3 0.68 3 0 3 C-0.33 3.66 -0.66 4.32 -1 5 C-1.66 4.34 -2.32 3.68 -3 3 C-3.99 3.33 -4.98 3.66 -6 4 C-2.535 5.485 -2.535 5.485 1 7 C1.125 9.375 1.125 9.375 1 12 C-1 14 -1 14 -2.9453125 14.1953125 C-4.96354167 14.13020833 -6.98177083 14.06510417 -9 14 C-9.66 12.68 -10.32 11.36 -11 10 C-8.36 10.33 -5.72 10.66 -3 11 C-4.39316877 8.21366246 -6.15980516 8.06507306 -9 7 C-10 6 -10 6 -10.25 3.5625 C-10.1675 2.716875 -10.085 1.87125 -10 1 C-6.12978884 -1.58014077 -4.4510289 -0.80927798 0 0 Z M8 2 C5.7508092 3.82703227 5.7508092 3.82703227 5.75 6.5 C5.7508092 9.17296773 5.7508092 9.17296773 8 11 C10.78237655 10.59471099 10.78237655 10.59471099 13 9 C13.04063832 7.33382885 13.042721 5.66611905 13 4 C10.61837991 2.58614089 10.61837991 2.58614089 8 2 Z M23 7 C22.34 7.66 21.68 8.32 21 9 C21.33 9.66 21.66 10.32 22 11 C23.65 10.67 25.3 10.34 27 10 C27 9.34 27 8.68 27 8 C25.10820797 7.3185177 25.10820797 7.3185177 23 7 Z " fill="#3F3F3F" transform="translate(200,257)"/>
<path d="M0 0 C6.27 0 12.54 0 19 0 C20.17829199 2.35658397 20.04414372 3.52573236 19.87890625 6.1328125 C19.81425171 7.22166748 19.81425171 7.22166748 19.74829102 8.33251953 C19.68697998 9.25403809 19.62566895 10.17555664 19.5625 11.125 C19.376875 14.05375 19.19125 16.9825 19 20 C12.73 20 6.46 20 0 20 C0 13.4 0 6.8 0 0 Z " fill="#181818" transform="translate(119,115)"/>
<path d="M0 0 C1.32 0 2.64 0 4 0 C4 6.6 4 13.2 4 20 C-6.5039557 20.37072785 -6.5039557 20.37072785 -8.85546875 18.61328125 C-10 17 -10 17 -10 15 C-10.66 15 -11.32 15 -12 15 C-12.309375 15.639375 -12.61875 16.27875 -12.9375 16.9375 C-14 19 -14 19 -15 20 C-18.82011276 20.360388 -21.15684085 20.54048663 -24.4375 18.4375 C-26.61999672 15.03280512 -26.63734462 12.96569988 -26 9 C-23.9375 6.5 -23.9375 6.5 -21 5 C-17.375 5 -17.375 5 -14 6 C-12.0625 8.0625 -12.0625 8.0625 -11 10 C-10.29875 9.154375 -9.5975 8.30875 -8.875 7.4375 C-6 5 -6 5 -2.6875 5.1875 C-1.800625 5.455625 -0.91375 5.72375 0 6 C0 4.02 0 2.04 0 0 Z M-20 8 C-22.2491908 9.82703227 -22.2491908 9.82703227 -22.25 12.5 C-22.2491908 15.17296773 -22.2491908 15.17296773 -20 17 C-17.89179203 16.6814823 -17.89179203 16.6814823 -16 16 C-15.23043864 13.65466049 -15.23043864 13.65466049 -15 11 C-16.20918882 9.12359581 -16.20918882 9.12359581 -18 8 C-18.66 8 -19.32 8 -20 8 Z M-4 8 C-5.66621425 9.1645201 -5.66621425 9.1645201 -7 11 C-6.76956136 13.65466049 -6.76956136 13.65466049 -6 16 C-2.95086772 17.01111093 -2.95086772 17.01111093 0 16 C0 14.02 0 12.04 0 10 C-1.32 9.34 -2.64 8.68 -4 8 Z " fill="#929292" transform="translate(79,251)"/>
<path d="M0 0 C5.61 0 11.22 0 17 0 C17 5.94 17 11.88 17 18 C11.39 18 5.78 18 0 18 C-1.60487828 14.79024345 -0.82448599 11.36653998 -0.5625 7.875 C-0.376875 5.27625 -0.19125 2.6775 0 0 Z " fill="#0F0F0F" transform="translate(188,172)"/>
<path d="M0 0 C10.5039557 -0.37072785 10.5039557 -0.37072785 12.85546875 1.38671875 C14 3 14 3 14 5 C15.32 5 16.64 5 18 5 C18.99 7.31 19.98 9.62 21 12 C22.32 9.69 23.64 7.38 25 5 C25.99 5 26.98 5 28 5 C26.9909571 9.86175214 25.59344779 14.34644338 23.6875 18.9375 C23.29949219 19.87464844 22.91148437 20.81179688 22.51171875 21.77734375 C21 24 21 24 18.33203125 24.81640625 C17.56246094 24.87699219 16.79289062 24.93757813 16 25 C16 23.68 16 22.36 16 21 C16.99 21 17.98 21 19 21 C18.54738642 19.56068883 18.08767021 18.12361001 17.625 16.6875 C17.36976563 15.88699219 17.11453125 15.08648437 16.8515625 14.26171875 C16.01168189 11.77275472 16.01168189 11.77275472 14 9 C13.01 10.485 13.01 10.485 12 12 C9.8359375 12.29296875 9.8359375 12.29296875 7.375 12.1875 C6.55773437 12.16042969 5.74046875 12.13335937 4.8984375 12.10546875 C4.27195313 12.07066406 3.64546875 12.03585937 3 12 C3 14.31 3 16.62 3 19 C2.01 19 1.02 19 0 19 C0 12.73 0 6.46 0 0 Z M3 3 C3 4.98 3 6.96 3 9 C5.31 9 7.62 9 10 9 C10.6814823 7.10820797 10.6814823 7.10820797 11 5 C9.10244856 2.65026182 9.10244856 2.65026182 5.875 2.875 C4.92625 2.91625 3.9775 2.9575 3 3 Z " fill="#4D4D4D" transform="translate(161,252)"/>
<path d="M0 0 C1.32 0 2.64 0 4 0 C4 5.28 4 10.56 4 16 C7.3 15.67 10.6 15.34 14 15 C14.38671875 14.00097656 14.7734375 13.00195312 15.171875 11.97265625 C15.69711083 10.66894589 16.2231969 9.36557785 16.75 8.0625 C17.00265625 7.40314453 17.2553125 6.74378906 17.515625 6.06445312 C19.50690808 1.21070063 19.50690808 1.21070063 22.203125 0.05859375 C22.79609375 0.03925781 23.3890625 0.01992187 24 0 C24.98838433 2.0372203 25.96532252 4.07999607 26.9375 6.125 C27.48277344 7.26195312 28.02804687 8.39890625 28.58984375 9.5703125 C29.9103119 12.78186661 30.58784221 15.56709079 31 19 C29.0625 18.6875 29.0625 18.6875 27 18 C26.67 17.01 26.34 16.02 26 15 C23.69 15 21.38 15 19 15 C18.34 16.32 17.68 17.64 17 19 C11.72 19 6.44 19 1 19 C0.67 12.73 0.34 6.46 0 0 Z M22 5 C21.34 6.98 20.68 8.96 20 11 C21.65 11 23.3 11 25 11 C24.34 9.02 23.68 7.04 23 5 C22.67 5 22.34 5 22 5 Z " fill="#373737" transform="translate(275,252)"/>
<path d="M0 0 C9.1796875 -0.1953125 9.1796875 -0.1953125 12 0 C14 2 14 2 14.16015625 3.91015625 C14.11181641 4.97556641 14.11181641 4.97556641 14.0625 6.0625 C14.041875 7.361875 14.02125 8.66125 14 10 C14.33 10.33 14.66 10.66 15 11 C15.28522825 13.7096684 15.43582128 15.36210242 13.87109375 17.65234375 C10.03293543 20.41677929 4.49162404 19.1448911 0 19 C0 12.73 0 6.46 0 0 Z M3 3 C3 4.65 3 6.3 3 8 C4.98 8 6.96 8 9 8 C9.33 6.35 9.66 4.7 10 3 C7.69 3 5.38 3 3 3 Z M3 11 C3 12.65 3 14.3 3 16 C7.14093698 16.20970559 7.14093698 16.20970559 11 15 C10.67 13.68 10.34 12.36 10 11 C7.69 11 5.38 11 3 11 Z " fill="#3A3A3A" transform="translate(308,252)"/>
<path d="M0 0 C1 1 1 1 1.09765625 3.94140625 C1.06510417 7.29427083 1.03255208 10.64713542 1 14 C-3.29 14 -7.58 14 -12 14 C-12 9.71 -12 5.42 -12 1 C-7.67322878 -0.08169281 -4.43291584 -0.1453415 0 0 Z " fill="#313131" transform="translate(143,198)"/>
<path d="M0 0 C4.29 0 8.58 0 13 0 C13 4.29 13 8.58 13 13 C8.71 13 4.42 13 0 13 C0 8.71 0 4.42 0 0 Z " fill="#252525" transform="translate(179,85)"/>
<path d="M0 0 C2.10375 0.12375 4.2075 0.2475 6.375 0.375 C8.15003906 0.47941406 8.15003906 0.47941406 9.9609375 0.5859375 C13 1 13 1 15 3 C15.265625 4.875 15.265625 4.875 15.25 7 C15.25515625 7.70125 15.2603125 8.4025 15.265625 9.125 C15 11 15 11 13 13 C10.31160615 13.26991906 7.70858064 13.08737357 5 13 C5 15.31 5 17.62 5 20 C3.68 20 2.36 20 1 20 C0.67 13.4 0.34 6.8 0 0 Z M5 4 C5 5.98 5 7.96 5 10 C6.98 10 8.96 10 11 10 C12.01111093 6.95086772 12.01111093 6.95086772 11 4 C9.02 4 7.04 4 5 4 Z " fill="#040404" transform="translate(28,251)"/>
<path d="M0 0 C1.32 0 2.64 0 4 0 C5.1734316 2.60130627 6.33892508 5.20568508 7.5 7.8125 C7.83386719 8.55048828 8.16773438 9.28847656 8.51171875 10.04882812 C8.82753906 10.76103516 9.14335937 11.47324219 9.46875 12.20703125 C9.90864258 13.18893433 9.90864258 13.18893433 10.35742188 14.19067383 C11 16 11 16 11 19 C9.68 19 8.36 19 7 19 C6.67 17.35 6.34 15.7 6 14 C3.36 14 0.72 14 -2 14 C-2.33 15.65 -2.66 17.3 -3 19 C-4.32 18.67 -5.64 18.34 -7 18 C-4.69 12.06 -2.38 6.12 0 0 Z M2 6 C1.34 7.65 0.68 9.3 0 11 C1.32 11 2.64 11 4 11 C3.67 9.35 3.34 7.7 3 6 C2.67 6 2.34 6 2 6 Z " fill="#454545" transform="translate(11,252)"/>
<path d="M0 0 C7.30252101 -0.42956006 7.30252101 -0.42956006 11 0 C13.3125 2.125 13.3125 2.125 14 5 C12.8 10.2 12.8 10.2 11 12 C8.32941149 12.14115161 5.67567762 12.04247107 3 12 C3 14.31 3 16.62 3 19 C1.68 19 0.36 19 -1 19 C-0.67 12.73 -0.34 6.46 0 0 Z M3 3 C3 4.98 3 6.96 3 9 C4.98 9 6.96 9 9 9 C9.38218767 7.34385343 9.71395102 5.67542976 10 4 C8.87465895 2.64381501 8.87465895 2.64381501 5.9375 2.9375 C4.968125 2.958125 3.99875 2.97875 3 3 Z " fill="#575757" transform="translate(362,252)"/>
<path d="M0 0 C0.99 0 1.98 0 3 0 C3 6.27 3 12.54 3 19 C2.67 19 2.34 19 2 19 C2 13.72 2 8.44 2 3 C1.34 3 0.68 3 0 3 C-0.33 3.66 -0.66 4.32 -1 5 C-1.66 4.34 -2.32 3.68 -3 3 C-3.99 3.33 -4.98 3.66 -6 4 C-2.535 5.485 -2.535 5.485 1 7 C1.125 9.375 1.125 9.375 1 12 C-1 14 -1 14 -2.9453125 14.1953125 C-4.96354167 14.13020833 -6.98177083 14.06510417 -9 14 C-9.66 12.68 -10.32 11.36 -11 10 C-8.36 10.33 -5.72 10.66 -3 11 C-4.39316877 8.21366246 -6.15980516 8.06507306 -9 7 C-10 6 -10 6 -10.25 3.5625 C-10.1675 2.716875 -10.085 1.87125 -10 1 C-6.11986924 -1.58675384 -4.47050246 -0.79830401 0 0 Z " fill="#7D7D7D" transform="translate(200,257)"/>
<path d="M0 0 C0.99 0 1.98 0 3 0 C3.33 3.3 3.66 6.6 4 10 C5.08857529 8.94823522 5.08857529 8.94823522 6.25 7.4375 C8.56833893 5.53315016 10.08115747 5.76333709 13 6 C11.02 8.97 11.02 8.97 9 12 C9.66 12.94875 10.32 13.8975 11 14.875 C13 18 13 18 13 20 C11.68 20 10.36 20 9 20 C6.75 17.5 6.75 17.5 5 15 C4.01 17.475 4.01 17.475 3 20 C2.01 20 1.02 20 0 20 C0 13.4 0 6.8 0 0 Z " fill="#6B6B6B" transform="translate(242,251)"/>
<path d="M0 0 C2.48038907 3.7205836 2.46337203 5.59796571 2 10 C0.4375 12.4375 0.4375 12.4375 -2 14 C-5.43737531 14.42213381 -7.82090489 14.60856522 -10.9375 13 C-12.6202561 9.83245911 -12.54468716 6.5086342 -12 3 C-8.67709978 -1.98435032 -5.46432758 -1.19221693 0 0 Z M-7.8125 3.125 C-9.28399746 5.01353208 -9.28399746 5.01353208 -8.6875 7.6875 C-8.460625 8.450625 -8.23375 9.21375 -8 10 C-6.16299211 10.77242269 -6.16299211 10.77242269 -4 11 C-2.06345052 9.98029682 -2.06345052 9.98029682 -1 8 C-1.23043864 5.34533951 -1.23043864 5.34533951 -2 3 C-4.99014998 1.85732642 -4.99014998 1.85732642 -7.8125 3.125 Z " fill="#454545" transform="translate(142,257)"/>
<path d="M0 0 C8.3984375 -0.1953125 8.3984375 -0.1953125 11 0 C13 2 13 2 13.125 4.625 C13.08375 5.40875 13.0425 6.1925 13 7 C12.67 6.34 12.34 5.68 12 5 C9.88153715 4.31270746 9.88153715 4.31270746 7.4375 3.875 C6.61121094 3.70742187 5.78492188 3.53984375 4.93359375 3.3671875 C4.29550781 3.24601563 3.65742188 3.12484375 3 3 C3 4.98 3 6.96 3 9 C7.455 8.505 7.455 8.505 12 8 C11.34 9.32 10.68 10.64 10 12 C7.69 12 5.38 12 3 12 C3 14.31 3 16.62 3 19 C2.01 19 1.02 19 0 19 C0 12.73 0 6.46 0 0 Z " fill="#4F4F4F" transform="translate(161,252)"/>
<path d="M0 0 C0.99 0.33 1.98 0.66 3 1 C3.33 4.3 3.66 7.6 4 11 C5.32 10.67 6.64 10.34 8 10 C8.33 7.03 8.66 4.06 9 1 C9.99 1 10.98 1 12 1 C12.33 5.62 12.66 10.24 13 15 C3.8203125 15.29296875 3.8203125 15.29296875 1 15 C-1.26166232 11.60750652 -1.24515545 10.34798499 -1.1875 6.375 C-1.18105469 5.39273437 -1.17460938 4.41046875 -1.16796875 3.3984375 C-1 1 -1 1 0 0 Z " fill="#9B9B9B" transform="translate(86,256)"/>
<path d="M0 0 C0.33 0.66 0.66 1.32 1 2 C0.01 3.485 0.01 3.485 -1 5 C-1 4.34 -1 3.68 -1 3 C-2.65 3 -4.3 3 -6 3 C-3.68143083 4.54571278 -1.49361571 5.79618552 1 7 C1.125 9.375 1.125 9.375 1 12 C-1 14 -1 14 -2.9453125 14.1953125 C-4.96354167 14.13020833 -6.98177083 14.06510417 -9 14 C-9.66 12.68 -10.32 11.36 -11 10 C-8.36 10.33 -5.72 10.66 -3 11 C-4.39316877 8.21366246 -6.15980516 8.06507306 -9 7 C-10 6 -10 6 -10.0625 3.4375 C-10.041875 2.633125 -10.02125 1.82875 -10 1 C-6.44020218 -1.32756011 -4.04793886 -1.07945036 0 0 Z " fill="#6F6F6F" transform="translate(266,257)"/>
<path d="M0 0 C0.33 0.99 0.66 1.98 1 3 C1.66 3.33 2.32 3.66 3 4 C-0.76624671 5.25541557 -2.37188934 4.37061958 -6 3 C-7.50930183 6.3863251 -7.50930183 6.3863251 -8 10 C-7.2575 10 -6.515 10 -5.75 10 C-3.5 10 -1.25 10 1 10 C0.34 11.32 -0.32 12.64 -1 14 C-7.25 14.48076923 -7.25 14.48076923 -10.4375 12.4375 C-12.56667558 9.11598609 -12.42255137 6.87338754 -12 3 C-8.61326653 -2.08010021 -5.54065966 -0.94086673 0 0 Z " fill="#676767" transform="translate(112,257)"/>
<path d="M0 0 C1.32 0 2.64 0 4 0 C4 5.28 4 10.56 4 16 C9.445 15.505 9.445 15.505 15 15 C15 15.99 15 16.98 15 18 C15.66 18.33 16.32 18.66 17 19 C11.72 19 6.44 19 1 19 C0.67 12.73 0.34 6.46 0 0 Z " fill="#545454" transform="translate(275,252)"/>
<path d="M0 0 C2.97 0 5.94 0 9 0 C9 3.3 9 6.6 9 10 C6.03 10 3.06 10 0 10 C0 6.7 0 3.4 0 0 Z " fill="#505050" transform="translate(132,87)"/>
<path d="M0 0 C6.15234375 -0.09765625 6.15234375 -0.09765625 8 0 C9 1 9 1 9.09765625 3.06640625 C9.06510417 5.37760417 9.03255208 7.68880208 9 10 C6.03 10 3.06 10 0 10 C0 6.7 0 3.4 0 0 Z " fill="#4F4F4F" transform="translate(109,158)"/>
<path d="M0 0 C0.99 0 1.98 0 3 0 C3 5.28 3 10.56 3 16 C6.3 16 9.6 16 13 16 C13 16.99 13 17.98 13 19 C8.71 19 4.42 19 0 19 C0 12.73 0 6.46 0 0 Z " fill="#484848" transform="translate(332,252)"/>
<path d="M0 0 C0.99 0 1.98 0 3 0 C3 5.28 3 10.56 3 16 C6.3 16 9.6 16 13 16 C13 16.99 13 17.98 13 19 C8.71 19 4.42 19 0 19 C0 12.73 0 6.46 0 0 Z " fill="#494949" transform="translate(347,252)"/>
<path d="M0 0 C0 0.99 0 1.98 0 3 C-0.99 3.33 -1.98 3.66 -3 4 C-3.33 4.66 -3.66 5.32 -4 6 C-3.01 5.67 -2.02 5.34 -1 5 C-1 5.99 -1 6.98 -1 8 C-1.99 8 -2.98 8 -4 8 C-4 11.96 -4 15.92 -4 20 C-4.99 20 -5.98 20 -7 20 C-7 16.04 -7 12.08 -7 8 C-7.66 8 -8.32 8 -9 8 C-9 7.01 -9 6.02 -9 5 C-8.34 5 -7.68 5 -7 5 C-7 3.68 -7 2.36 -7 1 C-4.53721199 -0.231394 -2.7204945 -0.07159196 0 0 Z " fill="#5D5D5D" transform="translate(154,251)"/>
<path d="M0 0 C0.33 0 0.66 0 1 0 C0.95117188 3.07617188 0.95117188 3.07617188 0.90234375 6.15234375 C0.79438816 8.01732141 0.79438816 8.01732141 2 9 C2.28522825 11.7096684 2.43582128 13.36210242 0.87109375 15.65234375 C-1.83033413 17.59804859 -3.90296655 17.29345269 -7.1875 17.1875 C-8.27417969 17.16042969 -9.36085938 17.13335937 -10.48046875 17.10546875 C-11.72763672 17.05326172 -11.72763672 17.05326172 -13 17 C-13 16.67 -13 16.34 -13 16 C-9.37 16 -5.74 16 -2 16 C-2 15.34 -2 14.68 -2 14 C-2.66 13.67 -3.32 13.34 -4 13 C-3.34 13 -2.68 13 -2 13 C-2.33 12.01 -2.66 11.02 -3 10 C-5.31 9.67 -7.62 9.34 -10 9 C-10 8.01 -10 7.02 -10 6 C-8.576875 5.87625 -8.576875 5.87625 -7.125 5.75 C-3.89538209 5.34925077 -3.89538209 5.34925077 -2.625 2.9375 C-2.41875 2.298125 -2.2125 1.65875 -2 1 C-1.67 1.66 -1.34 2.32 -1 3 C-0.67 2.01 -0.34 1.02 0 0 Z " fill="#727272" transform="translate(321,254)"/>
<path d="M0 0 C0.99 0 1.98 0 3 0 C3 1.65 3 3.3 3 5 C3.99 5 4.98 5 6 5 C6 5.66 6 6.32 6 7 C5.01 7 4.02 7 3 7 C3 9.97 3 12.94 3 16 C3.99 15.67 4.98 15.34 6 15 C6 16.32 6 17.64 6 19 C4.33388095 19.042721 2.66617115 19.04063832 1 19 C0 18 0 18 -0.09765625 15.49609375 C-0.08605469 14.48675781 -0.07445313 13.47742188 -0.0625 12.4375 C-0.05347656 11.42558594 -0.04445313 10.41367187 -0.03515625 9.37109375 C-0.02355469 8.58863281 -0.01195313 7.80617188 0 7 C-0.66 7 -1.32 7 -2 7 C-2 6.01 -2 5.02 -2 4 C-1.34 4 -0.68 4 0 4 C0 2.68 0 1.36 0 0 Z " fill="#686868" transform="translate(116,252)"/>
<path d="M0 0 C1.4375 2.0625 1.4375 2.0625 2 4 C1.34 4 0.68 4 0 4 C0 5.65 0 7.3 0 9 C-2 5.25 -2 5.25 -2 3 C-3.65 3.33 -5.3 3.66 -7 4 C-7.15149298 7.62885324 -7.15149298 7.62885324 -6 11 C-6.99 11 -7.98 11 -9 11 C-8.67 11.66 -8.34 12.32 -8 13 C-8.99 12.67 -9.98 12.34 -11 12 C-12.56430248 8.87139505 -12.35627284 6.44397075 -12 3 C-8.34621076 -1.42883544 -5.37495313 -1.62262736 0 0 Z " fill="#575757" transform="translate(65,257)"/>
<path d="M0 0 C2.10375 0.12375 4.2075 0.2475 6.375 0.375 C8.15003906 0.47941406 8.15003906 0.47941406 9.9609375 0.5859375 C13 1 13 1 15 3 C15.26991906 5.68839385 15.08737357 8.29141936 15 11 C14.67 11 14.34 11 14 11 C13.67 8.69 13.34 6.38 13 4 C12.34 4.66 11.68 5.32 11 6 C11 5.34 11 4.68 11 4 C9.02 4 7.04 4 5 4 C5 5.98 5 7.96 5 10 C6.98 10 8.96 10 11 10 C11 10.33 11 10.66 11 11 C8.69 11 6.38 11 4 11 C4 8.36 4 5.72 4 3 C3.34 2.67 2.68 2.34 2 2 C2 7.61 2 13.22 2 19 C2.66 19 3.32 19 4 19 C4 17.02 4 15.04 4 13 C4.33 13 4.66 13 5 13 C5 15.31 5 17.62 5 20 C3.68 20 2.36 20 1 20 C0.67 13.4 0.34 6.8 0 0 Z " fill="#ADADAD" transform="translate(28,251)"/>
<path d="M0 0 C0.66 0 1.32 0 2 0 C2.13277344 0.61488281 2.26554688 1.22976563 2.40234375 1.86328125 C2.57894531 2.67152344 2.75554687 3.47976563 2.9375 4.3125 C3.19853516 5.51326172 3.19853516 5.51326172 3.46484375 6.73828125 C3.99886159 9.145401 3.99886159 9.145401 5 12 C5.99 12.33 6.98 12.66 8 13 C6.35 13 4.7 13 3 13 C3 14.98 3 16.96 3 19 C2.01 19.33 1.02 19.66 0 20 C0 13.4 0 6.8 0 0 Z " fill="#393939" transform="translate(203,257)"/>
<path d="M0 0 C0.99 0 1.98 0 3 0 C3.1946838 2.77050026 3.38102792 5.54113002 3.5625 8.3125 C3.61857422 9.09818359 3.67464844 9.88386719 3.73242188 10.69335938 C3.78076172 11.45068359 3.82910156 12.20800781 3.87890625 12.98828125 C3.94960327 14.03302612 3.94960327 14.03302612 4.02172852 15.09887695 C4 17 4 17 3 20 C2.01 20 1.02 20 0 20 C0 13.4 0 6.8 0 0 Z " fill="#515151" transform="translate(242,251)"/>
<path d="M0 0 C1.35091528 2.70183055 1.33858058 5.11808206 1.5625 8.125 C1.64628906 9.22070312 1.73007813 10.31640625 1.81640625 11.4453125 C1.87699219 12.28835938 1.93757812 13.13140625 2 14 C1.01 14 0.02 14 -1 14 C-1 11.69 -1 9.38 -1 7 C-1.99 6.67 -2.98 6.34 -4 6 C-3.01 6 -2.02 6 -1 6 C-2.10041919 4.31318262 -2.10041919 4.31318262 -4 3 C-7.14921909 3.23283149 -7.14921909 3.23283149 -10 4 C-10 2.68 -10 1.36 -10 0 C-6.26840331 -1.24386556 -3.81984796 -0.77811718 0 0 Z " fill="#363636" transform="translate(229,257)"/>
<path d="M0 0 C0 0.99 0 1.98 0 3 C-0.96679688 3.35191406 -0.96679688 3.35191406 -1.953125 3.7109375 C-4.2077908 4.81161073 -4.2077908 4.81161073 -4.609375 7.1640625 C-4.65578125 7.97617187 -4.7021875 8.78828125 -4.75 9.625 C-4.80671875 10.44226563 -4.8634375 11.25953125 -4.921875 12.1015625 C-4.94765625 12.72804688 -4.9734375 13.35453125 -5 14 C-5.99 14 -6.98 14 -8 14 C-8 9.38 -8 4.76 -8 0 C-2 -1 -2 -1 0 0 Z " fill="#444444" transform="translate(53,257)"/>
<path d="M0 0 C0 0.99 0 1.98 0 3 C-0.96679688 3.35191406 -0.96679688 3.35191406 -1.953125 3.7109375 C-4.2077908 4.81161073 -4.2077908 4.81161073 -4.609375 7.1640625 C-4.65578125 7.97617187 -4.7021875 8.78828125 -4.75 9.625 C-4.80671875 10.44226563 -4.8634375 11.25953125 -4.921875 12.1015625 C-4.94765625 12.72804688 -4.9734375 13.35453125 -5 14 C-5.99 14 -6.98 14 -8 14 C-8 9.38 -8 4.76 -8 0 C-2 -1 -2 -1 0 0 Z " fill="#363636" transform="translate(241,257)"/>
<path d="M0 0 C0.99 0.66 1.98 1.32 3 2 C3.37033222 5.39471203 3.60921702 7.88907484 1.9375 10.9375 C-1.01168691 12.55479605 -3.70867559 12.18630138 -7 12 C-7.66 10.68 -8.32 9.36 -9 8 C-7.906875 8.020625 -6.81375 8.04125 -5.6875 8.0625 C-2.05615809 8.18544452 -2.05615809 8.18544452 1 7 C0.67 4.69 0.34 2.38 0 0 Z " fill="#555555" transform="translate(64,259)"/>
<path d="M0 0 C0.99 0 1.98 0 3 0 C3 6.27 3 12.54 3 19 C2.67 19 2.34 19 2 19 C2 13.72 2 8.44 2 3 C1.34 3 0.68 3 0 3 C-0.33 3.66 -0.66 4.32 -1 5 C-1.66 4.34 -2.32 3.68 -3 3 C-4.32 3 -5.64 3 -7 3 C-7 2.34 -7 1.68 -7 1 C-7.66 0.67 -8.32 0.34 -9 0 C-5.93652871 -1.53173564 -3.31441515 -0.52332871 0 0 Z " fill="#B8B8B8" transform="translate(200,257)"/>
<path d="M0 0 C0.33 0.66 0.66 1.32 1 2 C2.32 2 3.64 2 5 2 C5.66 4.31 6.32 6.62 7 9 C6.01 9.66 5.02 10.32 4 11 C3.34 9.35 2.68 7.7 2 6 C1.01 6.99 0.02 7.98 -1 9 C-1.66 8.67 -2.32 8.34 -3 8 C-3 5.51648257 -2.15552428 4.17510453 -1 2 C-0.67 1.34 -0.34 0.68 0 0 Z " fill="#808080" transform="translate(174,255)"/>
<path d="M0 0 C1.32 0.33 2.64 0.66 4 1 C4.66 3.31 5.32 5.62 6 8 C5.34 8 4.68 8 4 8 C3.67 8.66 3.34 9.32 3 10 C2.67 9.34 2.34 8.68 2 8 C1.01 8.66 0.02 9.32 -1 10 C-0.67 8.35 -0.34 6.7 0 5 C-0.66 5 -1.32 5 -2 5 C-1.34 3.35 -0.68 1.7 0 0 Z " fill="#747474" transform="translate(296,252)"/>
<path d="M0 0 C0.33 0 0.66 0 1 0 C1.33 4.95 1.66 9.9 2 15 C4.97 15 7.94 15 11 15 C11 15.66 11 16.32 11 17 C7.37 17 3.74 17 0 17 C0 11.39 0 5.78 0 0 Z " fill="#1B1B1B" transform="translate(308,253)"/>
<path d="M0 0 C0.99 0 1.98 0 3 0 C3.33 4.62 3.66 9.24 4 14 C3.01 14 2.02 14 1 14 C-0.04976964 10.85069107 -0.10131595 8.61185544 -0.0625 5.3125 C-0.05347656 4.31863281 -0.04445313 3.32476562 -0.03515625 2.30078125 C-0.02355469 1.54152344 -0.01195313 0.78226562 0 0 Z " fill="#4D4D4D" transform="translate(95,257)"/>
<path d="M0 0 C1.375 2.0625 1.375 2.0625 2 4 C1.34 4 0.68 4 0 4 C0 5.65 0 7.3 0 9 C-0.33 9 -0.66 9 -1 9 C-1.66 7.02 -2.32 5.04 -3 3 C-4.65 3.33 -6.3 3.66 -8 4 C-8.33 2.68 -8.66 1.36 -9 0 C-5.44712603 -1.18429132 -3.58589143 -0.99184231 0 0 Z " fill="#757575" transform="translate(214,257)"/>
<path d="M0 0 C0.99 0 1.98 0 3 0 C3.33 0.99 3.66 1.98 4 3 C5.33076989 3.34342449 6.66431979 3.67619874 8 4 C10 7 10 7 10 10 C9.34 10 8.68 10 8 10 C8 9.01 8 8.02 8 7 C7.05125 7.04125 6.1025 7.0825 5.125 7.125 C2 7 2 7 0 5 C-0.125 2.375 -0.125 2.375 0 0 Z " fill="#545454" transform="translate(190,258)"/>
<path d="M0 0 C1.32 0 2.64 0 4 0 C4.66 1.98 5.32 3.96 6 6 C5.34 6 4.68 6 4 6 C3.67 6.66 3.34 7.32 3 8 C2.01 8.33 1.02 8.66 0 9 C-1.125 3.375 -1.125 3.375 0 0 Z " fill="#6C6C6C" transform="translate(11,252)"/>
<path d="M0 0 C3.2542015 2.83430453 4.5206753 4.68607774 5 9 C3.68 9 2.36 9 1 9 C0.67 7.35 0.34 5.7 0 4 C-2.64 4 -5.28 4 -8 4 C-8 3.67 -8 3.34 -8 3 C-5.36 2.67 -2.72 2.34 0 2 C0 1.34 0 0.68 0 0 Z " fill="#7B7B7B" transform="translate(17,262)"/>
<path d="M0 0 C-1.375 1.5 -1.375 1.5 -3 3 C-3.66 3 -4.32 3 -5 3 C-5 5.31 -5 7.62 -5 10 C-5.66 9.67 -6.32 9.34 -7 9 C-7.66 9.66 -8.32 10.32 -9 11 C-9.25 3.375 -9.25 3.375 -7 0 C-3.86650268 -1.04449911 -3.01031744 -0.93423645 0 0 Z " fill="#7D7D7D" transform="translate(139,257)"/>
<path d="M0 0 C0.33 0 0.66 0 1 0 C1.33 1.65 1.66 3.3 2 5 C5.96 5.99 5.96 5.99 10 7 C9.67 7.99 9.34 8.98 9 10 C5.625 10.125 5.625 10.125 2 10 C0 8 0 8 -0.1953125 6.0546875 C-0.13020833 4.03645833 -0.06510417 2.01822917 0 0 Z " fill="#454545" transform="translate(131,261)"/>
<path d="M0 0 C2.44839588 3.67259383 4 6.54648201 4 11 C2.0625 10.6875 2.0625 10.6875 0 10 C-0.33 9.01 -0.66 8.02 -1 7 C-3.64 7 -6.28 7 -9 7 C-9 6.34 -9 5.68 -9 5 C-6.03 5 -3.06 5 0 5 C0 3.35 0 1.7 0 0 Z " fill="#929292" transform="translate(302,260)"/>
<path d="M0 0 C-0.66 1.32 -1.32 2.64 -2 4 C-4.31 4 -6.62 4 -9 4 C-9.33 3.01 -9.66 2.02 -10 1 C-3.375 -1.125 -3.375 -1.125 0 0 Z " fill="#5B5B5B" transform="translate(113,267)"/>
<path d="M0 0 C0.99 0 1.98 0 3 0 C1.25 7.75 1.25 7.75 -1 10 C-2.1875 8.375 -2.1875 8.375 -3 6 C-1.625 2.75 -1.625 2.75 0 0 Z " fill="#727272" transform="translate(186,257)"/>
<path d="M0 0 C0.33 0.66 0.66 1.32 1 2 C0.01 3.485 0.01 3.485 -1 5 C-1 4.34 -1 3.68 -1 3 C-2.65 3 -4.3 3 -6 3 C-6 3.66 -6 4.32 -6 5 C-6.66 5 -7.32 5 -8 5 C-8.33 3.35 -8.66 1.7 -9 0 C-5.49270578 -1.16909807 -3.55692677 -0.85056945 0 0 Z " fill="#858585" transform="translate(266,257)"/>
<path d="M0 0 C-0.33 0.66 -0.66 1.32 -1 2 C-4.00419641 3.0013988 -6.87709365 3.51421457 -10 4 C-10 2.68 -10 1.36 -10 0 C-6.30581799 -1.231394 -3.7943739 -0.64432764 0 0 Z " fill="#7F7F7F" transform="translate(229,257)"/>
<path d="M0 0 C0.66 0.33 1.32 0.66 2 1 C2.09765625 7.15234375 2.09765625 7.15234375 2 9 C1 10 1 10 -1.06640625 10.09765625 C-1.89011719 10.08605469 -2.71382812 10.07445312 -3.5625 10.0625 C-4.38878906 10.05347656 -5.21507812 10.04445313 -6.06640625 10.03515625 C-6.70449219 10.02355469 -7.34257813 10.01195312 -8 10 C-8 9.67 -8 9.34 -8 9 C-4.535 8.505 -4.535 8.505 -1 8 C-0.67 5.36 -0.34 2.72 0 0 Z " fill="#393939" transform="translate(40,254)"/>
<path d="M0 0 C0.66 0 1.32 0 2 0 C2 4.29 2 8.58 2 13 C1.01 13.495 1.01 13.495 0 14 C-1.13016601 8.97703996 -0.77916092 5.02125926 0 0 Z " fill="#030303" transform="translate(80,252)"/>
<path d="M0 0 C0.33 0 0.66 0 1 0 C1 2.97 1 5.94 1 9 C2.32 8.67 3.64 8.34 5 8 C5 9.32 5 10.64 5 12 C3.35 12 1.7 12 0 12 C0 8.04 0 4.08 0 0 Z " fill="#3C3C3C" transform="translate(117,259)"/>
<path d="M0 0 C0.99 1.485 0.99 1.485 2 3 C2.66 2.34 3.32 1.68 4 1 C4.66 3.31 5.32 5.62 6 8 C5.01 8 4.02 8 3 8 C3.33 8.66 3.66 9.32 4 10 C3.01 9.67 2.02 9.34 1 9 C-0.4783226 6.04335481 -0.06032783 3.25770263 0 0 Z " fill="#979797" transform="translate(53,260)"/>
<path d="M0 0 C2.31 0.33 4.62 0.66 7 1 C7.33 1.99 7.66 2.98 8 4 C8.66 4.33 9.32 4.66 10 5 C7 6 7 6 3.875 4.75 C1 3 1 3 0 0 Z " fill="#8F8F8F" transform="translate(105,256)"/>
<path d="M0 0 C2.09749995 2.35968744 2.96905704 3.54616994 3.1875 6.75 C3.125625 7.4925 3.06375 8.235 3 9 C0.03 9 -2.94 9 -6 9 C-4.68 8.67 -3.36 8.34 -2 8 C-2 7.34 -2 6.68 -2 6 C-1.34 6 -0.68 6 0 6 C0 4.02 0 2.04 0 0 Z " fill="#474747" transform="translate(79,261)"/>
<path d="M0 0 C0.33 0.66 0.66 1.32 1 2 C-0.98 2.99 -2.96 3.98 -5 5 C-5 5.66 -5 6.32 -5 7 C-5.66 7 -6.32 7 -7 7 C-7.66 5.35 -8.32 3.7 -9 2 C-6.03 1.34 -3.06 0.68 0 0 Z " fill="#828282" transform="translate(227,261)"/>
<path d="M0 0 C-0.33 1.32 -0.66 2.64 -1 4 C-2.65 4.33 -4.3 4.66 -6 5 C-6 3.68 -6 2.36 -6 1 C-3 0 -3 0 0 0 Z " fill="#757575" transform="translate(183,272)"/>
<path d="M0 0 C2.05883923 4.11767846 2.96165128 7.54993405 4 12 C2.68 12 1.36 12 0 12 C0 8.04 0 4.08 0 0 Z " fill="#1E1E1E" transform="translate(86,258)"/>
<path d="M0 0 C1.98 0 3.96 0 6 0 C6.66 1.32 7.32 2.64 8 4 C7.34 4 6.68 4 6 4 C6 5.65 6 7.3 6 9 C4 5.25 4 5.25 4 3 C3.34 3 2.68 3 2 3 C2 2.34 2 1.68 2 1 C1.34 0.67 0.68 0.34 0 0 Z " fill="#6D6D6D" transform="translate(59,257)"/>
<path d="M0 0 C1.61949011 2.57213134 2.04408751 3.67669159 1.625 6.75 C1.41875 7.4925 1.2125 8.235 1 9 C-0.32 8.67 -1.64 8.34 -3 8 C-2.01 5.36 -1.02 2.72 0 0 Z " fill="#6F6F6F" transform="translate(7,262)"/>
<path d="M0 0 C0.33 0 0.66 0 1 0 C1.36923077 6.52307692 1.36923077 6.52307692 -0.5 8.9375 C-0.995 9.288125 -1.49 9.63875 -2 10 C-2 9.34 -2 8.68 -2 8 C-2.99 7.67 -3.98 7.34 -5 7 C-4.34 7 -3.68 7 -3 7 C-2.87625 6.21625 -2.7525 5.4325 -2.625 4.625 C-2 2 -2 2 0 0 Z " fill="#858585" transform="translate(143,260)"/>
<path d="M0 0 C0 3 0 3 -1.875 4.9375 C-2.57625 5.618125 -3.2775 6.29875 -4 7 C-5.23512079 9.13309192 -5.23512079 9.13309192 -6 11 C-6.66 9.68 -7.32 8.36 -8 7 C-7.34 7 -6.68 7 -6 7 C-5.7525 6.401875 -5.505 5.80375 -5.25 5.1875 C-3.83629988 2.71352479 -2.34944617 1.56629745 0 0 Z " fill="#797979" transform="translate(192,32)"/>
<path d="M0 0 C0.99 0 1.98 0 3 0 C3 1.98 3 3.96 3 6 C0.29120665 7.35439668 -2.00933268 7.06501451 -5 7 C-2.7629196 3.6443794 -2.57482962 3.80721959 1 3 C1.33 2.34 1.66 1.68 2 1 C1.34 0.67 0.68 0.34 0 0 Z " fill="#828282" transform="translate(225,264)"/>
<path d="M0 0 C0.33 0.66 0.66 1.32 1 2 C1.99 2.33 2.98 2.66 4 3 C2 5 2 5 -1.625 5.125 C-2.73875 5.08375 -3.8525 5.0425 -5 5 C-4 2 -4 2 -1.9375 0.8125 C-1.298125 0.544375 -0.65875 0.27625 0 0 Z " fill="#828282" transform="translate(212,266)"/>
<path d="M0 0 C0 0.99 0 1.98 0 3 C-1.65 3.66 -3.3 4.32 -5 5 C-5.33 3.35 -5.66 1.7 -6 0 C-2.25 -1.125 -2.25 -1.125 0 0 Z " fill="#808080" transform="translate(53,257)"/>
<path d="M0 0 C0.66 0.99 1.32 1.98 2 3 C-0.66053211 3 -2.49940039 2.80664504 -5 2 C-5.66 1.34 -6.32 0.68 -7 0 C-4.27584084 -1.36207958 -2.87220643 -0.86166193 0 0 Z " fill="#777777" transform="translate(78,257)"/>
<path d="M0 0 C1.37562854 1.28965176 2.70766393 2.62689293 4 4 C4 4.66 4 5.32 4 6 C2.68 6 1.36 6 0 6 C-1.75 3.5 -1.75 3.5 -3 1 C-2.01 0.67 -1.02 0.34 0 0 Z " fill="#898989" transform="translate(251,265)"/>
<path d="M0 0 C0 0.99 0 1.98 0 3 C-1.65 3.66 -3.3 4.32 -5 5 C-5.33 3.35 -5.66 1.7 -6 0 C-2.25 -1.125 -2.25 -1.125 0 0 Z " fill="#7A7A7A" transform="translate(241,257)"/>
<path d="M0 0 C0.33 0 0.66 0 1 0 C1.125 5.75 1.125 5.75 0 8 C-0.66 8 -1.32 8 -2 8 C-2 7.34 -2 6.68 -2 6 C-2.66 5.67 -3.32 5.34 -4 5 C-3.34 3.68 -2.68 2.36 -2 1 C-1.67 1.66 -1.34 2.32 -1 3 C-0.67 2.01 -0.34 1.02 0 0 Z " fill="#8C8C8C" transform="translate(321,254)"/>
<path d="M0 0 C1.485 0.99 1.485 0.99 3 2 C3.1875 5.625 3.1875 5.625 3 9 C2.01 9 1.02 9 0 9 C0 6.03 0 3.06 0 0 Z " fill="#1C1C1C" transform="translate(64,259)"/>
<path d="M0 0 C0.99 0 1.98 0 3 0 C3.66 1.98 4.32 3.96 5 6 C3.35 5.67 1.7 5.34 0 5 C0 3.35 0 1.7 0 0 Z " fill="#4E4E4E" transform="translate(190,258)"/>
<path d="M0 0 C2.4375 0.8125 2.4375 0.8125 5 2 C5.33 2.99 5.66 3.98 6 5 C3.125 5.1875 3.125 5.1875 0 5 C-0.66 4.01 -1.32 3.02 -2 2 C-1.34 2 -0.68 2 0 2 C0 1.34 0 0.68 0 0 Z " fill="#7C7C7C" transform="translate(72,266)"/>
<path d="M0 0 C0.66 0.33 1.32 0.66 2 1 C1.67 2.32 1.34 3.64 1 5 C-1.97 4.67 -4.94 4.34 -8 4 C-8 3.67 -8 3.34 -8 3 C-5.36 2.67 -2.72 2.34 0 2 C0 1.34 0 0.68 0 0 Z " fill="#6C6C6C" transform="translate(17,262)"/>
<path d="M0 0 C0.99 0.33 1.98 0.66 3 1 C2.67 1.99 2.34 2.98 2 4 C3.32 4.66 4.64 5.32 6 6 C4.33388095 6.042721 2.66617115 6.04063832 1 6 C0 5 0 5 -0.0625 2.4375 C-0.041875 1.633125 -0.02125 0.82875 0 0 Z " fill="#3F3F3F" transform="translate(256,258)"/>
<path d="M0 0 C2.475 0.495 2.475 0.495 5 1 C5 1.66 5 2.32 5 3 C4.34 3 3.68 3 3 3 C3 4.65 3 6.3 3 8 C2.67 8 2.34 8 2 8 C1.34 5.36 0.68 2.72 0 0 Z " fill="#6E6E6E" transform="translate(211,258)"/>
<path d="M0 0 C0.66 0.33 1.32 0.66 2 1 C0.02 3.31 -1.96 5.62 -4 8 C-4.66 7.67 -5.32 7.34 -6 7 C-5.67 6.34 -5.34 5.68 -5 5 C-4.34 5 -3.68 5 -3 5 C-2.5359375 4.0409375 -2.5359375 4.0409375 -2.0625 3.0625 C-1 1 -1 1 0 0 Z " fill="#797979" transform="translate(73,55)"/>
<path d="" fill="#FFFFFF" transform="translate(0,0)"/>
<path d="" fill="#FFFFFF" transform="translate(0,0)"/>
<path d="" fill="#FFFFFF" transform="translate(0,0)"/>
<path d="" fill="#FFFFFF" transform="translate(0,0)"/>
<path d="" fill="#FFFFFF" transform="translate(0,0)"/>
<path d="" fill="#FFFFFF" transform="translate(0,0)"/>
<path d="" fill="#FFFFFF" transform="translate(0,0)"/>
<path d="" fill="#FFFFFF" transform="translate(0,0)"/>
<path d="" fill="#FFFFFF" transform="translate(0,0)"/>
<path d="" fill="#FFFFFF" transform="translate(0,0)"/>
</svg>
